<?xml version="1.0" encoding="UTF-8"?>
<svg width="100px" height="100px" viewBox="0 0 100 100" version="1.1" xmlns="http://www.w3.org/2000/svg">
  <defs>
    <linearGradient x1="100%" y1="21.875%" x2="0%" y2="78.125%" id="linearGradient-1">
      <stop stop-color="#EFF4FC" offset="0%"></stop>
      <stop stop-color="#CFDBEC" offset="100%"></stop>
    </linearGradient>
    <linearGradient x1="100%" y1="15.2777778%" x2="0%" y2="84.7222222%" id="linearGradient-2">
      <stop stop-color="#EFF4FC" offset="0%"></stop>
      <stop stop-color="#CFDBEC" offset="100%"></stop>
    </linearGradient>
  </defs>
  <g id="页面-1" stroke="none" stroke-width="1" fill="none" fill-rule="evenodd">
    <g id="6.1样本特征库-详情" transform="translate(-1030.000000, -574.000000)">
      <g id="数据为空备份" transform="translate(1030.000000, 574.000000)">
        <rect id="矩形" x="0" y="0" width="100" height="100"></rect>
        <g id="图标"
           transform="translate(50.162668, 49.819545) scale(1, -1) translate(-50.162668, -49.819545) translate(7.857143, 6.986029)">
          <ellipse id="椭圆形" fill="#F0F5FD" cx="38.5714286" cy="2.04081633" rx="38.5714286" ry="2.04081633"></ellipse>
          <path
            d="M80.4707902,75.2047448 C79.7809855,76.3284106 78.7930899,77.2474689 77.5071034,77.9619198 C80.6280999,78.2758239 82.6872271,77.2939725 83.684485,75.0163656 C85.1803718,71.5999552 81.5054973,73.5192462 80.4707902,75.2047448 Z"
            id="路径-5" fill="url(#linearGradient-1)"
            transform="translate(80.772410, 75.569974) rotate(17.000000) translate(-80.772410, -75.569974) "></path>
          <path
            d="M78.9703876,82.5530583 C78.4530341,83.4894464 77.7121124,84.2553284 76.7476225,84.8507041 C79.0883699,85.1122909 80.6327153,84.2940814 81.3806587,82.3960756 C82.5025738,79.549067 79.7464179,81.1484761 78.9703876,82.5530583 Z"
            id="路径-5" fill="url(#linearGradient-2)"
            transform="translate(79.196602, 82.857416) scale(1, -1) rotate(-22.000000) translate(-79.196602, -82.857416) "></path>
          <g id="箱子" transform="translate(6.520150, 8.859866)">
            <path
              d="M57.6181175,39.7771951 L40.3072174,54.0600561 L16.5491597,49.1125083 M40.4616737,54.790485 L33.8816438,28.6127136"
              id="形状结合" stroke="#E7EEF8"></path>
            <polyline id="路径-12" stroke="#E7EEF8"
                      points="3.12370332 59.6950211 39.0749549 66.883119 40.4616737 54.790485 46.7451558 64.4229787 71.4956341 42.1238715"></polyline>
            <polygon id="路径-7" stroke="#CFDBEC"
                     points="25.5100048 0 0 23.8352997 3.52369535 46.4422708 0.672930047 61.6343945 29.7553599 38.6911547 31.022101 24.4809745 39.5225793 36.5969264 77.6250586 43.0970459 68.1075601 31.3972238 59.9784758 9.89855708"></polygon>
            <polyline id="形状" stroke="#CFDBEC"
                      points="3.52369535 46.4422708 31.022101 23.9584608 68.1075601 31.3972238"></polyline>
            <line x1="31.022101" y1="23.9584608" x2="25.552742" y2="0.0017623834" id="路径-14" stroke="#CFDBEC"></line>
          </g>
          <path
            d="M36.3345026,50.5614651 C35.4071003,54.6283701 46.0320265,55.8773697 54.057643,57.7694642 C66.0960677,60.6076061 41.3760462,76.4542612 50.0854532,81.3265306 C53.1943794,83.065745 63.7576892,83.0755772 72.8737817,78.1540326 C73.4860706,77.8234735 74.0917078,77.4766521 74.6879797,77.1134021"
            id="路径" stroke="#CFDBEC" stroke-linecap="square" stroke-linejoin="round" stroke-dasharray="3"></path>
        </g>
      </g>
    </g>
  </g>
</svg>
