<?xml version="1.0" standalone="no"?><!DOCTYPE svg PUBLIC "-//W3C//DTD SVG 1.1//EN"
  "http://www.w3.org/Graphics/SVG/1.1/DTD/svg11.dtd">
<svg class="icon" width="200px" height="200.00px" viewBox="0 0 1024 1024" version="1.1"
     xmlns="http://www.w3.org/2000/svg">
  <path
    d="M492.608 128L128.96 421.76a28.096 28.096 0 0 0-10.496 21.76v430.784c0 15.744 13.44 28.544 29.888 28.544H874.88a30.592 30.592 0 0 0 21.12-8.32 27.968 27.968 0 0 0 8.768-20.224v-430.72c0-8.384-3.84-16.32-10.496-21.76L531.392 128a30.912 30.912 0 0 0-38.784 0z m77.696-43.392l358.4 293.824c19.84 16.32 31.296 40.064 31.296 65.088v430.784c0 47.36-40.128 85.696-89.6 85.696H153.6c-49.472 0-89.6-38.4-89.6-85.696v-430.72c0-25.088 11.392-48.896 31.36-65.216l358.4-293.76a92.736 92.736 0 0 1 116.48 0z"
    fill="#1A1A1A"/>
  <path
    d="M702.144 691.712c16.512 0 29.888 12.8 29.888 28.544a29.248 29.248 0 0 1-29.888 28.608H324.16a29.248 29.248 0 0 1-29.824-28.608c0-15.744 13.376-28.544 29.824-28.544h377.984zM698.624 435.712c16.512 0 29.888 12.8 29.888 28.544a29.248 29.248 0 0 1-29.888 28.608H324.416a29.248 29.248 0 0 1-29.888-28.608c0-15.744 13.376-28.544 29.888-28.544h374.208z"
    fill="#0E62D4"/>
  <path
    d="M348.544 718.912c0 16.448-12.8 29.824-28.544 29.824a29.248 29.248 0 0 1-28.544-29.824V465.28c0-16.512 12.8-29.888 28.544-29.888 15.808 0 28.544 13.376 28.544 29.888v253.568zM732.544 718.912c0 16.448-12.8 29.824-28.544 29.824a29.248 29.248 0 0 1-28.544-29.824V465.664c0-16.512 12.8-29.888 28.544-29.888 15.808 0 28.544 13.376 28.544 29.888v253.248z"
    fill="#0E62D4"/>
</svg>
